<svg width="1134" height="465" viewBox="0 0 1134 465" fill="none" xmlns="http://www.w3.org/2000/svg">
<g clip-path="url(#clip0_57_2)">
<path d="M852.597 37.0117C841.703 37.0117 832.936 42.0733 815.403 52.1964L450.802 262.699C450.45 262.902 450.101 263.103 449.756 263.303L445.421 250.298L427.168 244.393L424.484 248.687V283.583L424.53 283.553C424.511 283.759 424.501 283.965 424.501 284.173C424.501 290.463 433.268 295.524 450.802 305.648L700.508 449.815C718.042 459.939 726.809 465 737.703 465C748.597 465 757.364 459.939 774.898 449.815L1139.5 239.313C1156.81 229.32 1165.57 224.259 1165.79 218.081L1165.89 218.086V182.654L1151.39 186.949L1134.36 193.395L889.792 52.1964C872.258 42.0733 863.492 37.0117 852.597 37.0117Z" fill="#E44449"/>
<rect width="374.233" height="506.902" rx="21.4744" transform="matrix(0.866025 0.5 -0.866026 0.5 852.597 -5)" fill="#F15156"/>
<g clip-path="url(#clip1_57_2)">
<path d="M673.127 286.621C660.27 280.192 646.068 269.311 647.834 268.001C649.508 266.766 668.441 268.974 676.766 270.018C673.817 272.685 673.049 276.004 672.598 279.079C672.277 281.627 672.408 284.16 673.122 286.618L673.127 286.621Z" fill="#FA9700"/>
<path d="M672.603 279.082C673.054 276.007 673.817 272.685 676.771 270.02C679.15 270.319 680.67 270.52 680.67 270.52L681.074 290.018C678.605 289.189 675.898 288.007 673.132 286.624C672.423 284.163 672.286 281.633 672.608 279.084L672.603 279.082Z" fill="#F27006"/>
<path d="M717.233 261.157C719.628 262.753 721.675 264.317 723.112 265.742L689.34 265.509C689.34 265.509 688.992 264.631 688.474 263.258C693.094 261.555 698.839 261.115 704.169 260.851C708.583 260.666 712.97 260.742 717.228 261.154L717.233 261.157Z" fill="#F27006"/>
<path d="M684.981 246.553C687.251 245.534 706.093 253.731 717.233 261.157C712.975 260.744 708.588 260.668 704.174 260.854C698.844 261.117 693.089 261.558 688.479 263.26C686.677 258.451 682.842 247.52 684.986 246.556L684.981 246.553Z" fill="#FA9700"/>
<path d="M766.646 306.182C762.311 313.222 750.786 317.331 739.272 320.388L716.044 305.261L746.423 285.102C751.214 285.914 756.044 286.801 760.879 287.749C766.891 293.284 770.516 299.746 766.641 306.185L766.646 306.182Z" fill="#F27006"/>
<path d="M766.646 306.182C770.516 299.746 766.891 293.283 760.884 287.746C818.133 298.949 876.262 318.378 876.262 318.378L802.011 361.246L739.277 320.391C750.791 317.333 762.311 313.228 766.651 306.185L766.646 306.182Z" fill="#FA9700"/>
<path d="M647.709 268.484C656.395 268.383 664.274 272.435 669.498 276.445C673.927 279.939 675.511 283.807 675.586 287.81C663.154 282.094 648.336 271.175 647.704 268.487L647.709 268.484Z" fill="#FEB8AC"/>
<path d="M685.818 246.481C685.644 251.496 692.657 256.048 699.608 259.061C705.658 261.618 712.358 262.533 719.292 262.576C709.392 255.399 690.48 246.843 685.823 246.479L685.818 246.481Z" fill="#FEB8AC"/>
<path d="M758.486 310.436C776.968 299.766 748.678 279.439 734.791 269.826C720.899 260.216 696.717 259.161 683.196 266.967C669.676 274.773 671.502 288.735 688.148 296.756C704.793 304.776 740.005 321.106 758.486 310.436Z" fill="#FFF3DB"/>
<path d="M686.382 265.379C700.256 259.372 721.926 260.93 734.781 269.826C741.718 274.622 752.241 282.097 758.738 289.703C742.375 284.048 725.138 286.472 716.684 282.717C708.407 279.043 692.967 269.51 686.377 265.376L686.382 265.379Z" fill="#FA9700"/>
<path d="M680.44 268.809C687.596 272.617 704.112 281.529 710.476 286.307C716.979 291.188 712.781 301.14 722.576 310.587C709.401 306.836 696.46 300.757 688.148 296.756C672.734 289.331 670.041 276.822 680.445 268.812L680.44 268.809Z" fill="#FA9700"/>
<path d="M708.176 293.308C705.689 294.745 701.062 294.316 697.632 292.336C697.192 292.082 697.197 291.668 697.642 291.411C698.088 291.154 698.804 291.151 699.244 291.405C701.695 292.821 705.058 293.271 706.59 292.386C708.122 291.502 707.337 289.564 704.885 288.148C704.445 287.894 704.45 287.481 704.895 287.223C705.341 286.966 706.057 286.963 706.497 287.217C709.927 289.198 710.664 291.872 708.181 293.305L708.176 293.308Z" fill="#593A42"/>
<path d="M730.782 280.257C728.3 281.69 723.668 281.265 720.238 279.284C719.798 279.03 719.803 278.617 720.248 278.359C720.694 278.102 721.41 278.1 721.85 278.354C724.302 279.769 727.664 280.219 729.196 279.335C730.728 278.45 729.943 276.512 727.491 275.096C727.051 274.842 727.056 274.429 727.501 274.172C727.947 273.914 728.663 273.912 729.103 274.166C732.534 276.146 733.27 278.82 730.787 280.254L730.782 280.257Z" fill="#593A42"/>
<path d="M756.114 299.072C759.87 301.241 759.036 305.239 754.26 307.996C749.485 310.753 742.556 311.238 738.799 309.069C735.042 306.9 735.872 302.905 740.657 300.143C745.443 297.38 752.357 296.904 756.114 299.072Z" fill="#593A42"/>
<path d="M738.86 302.538C737.493 303.864 737.396 305.467 738.47 306.85C739.22 307.821 741.717 306.985 740.971 306.023C740.304 305.169 740.524 304.146 741.349 303.345C742.294 302.422 739.816 301.616 738.865 302.535L738.86 302.538Z" fill="#936170"/>
<path d="M740.276 307.246C739.642 307.458 739.288 308.005 739.722 308.376C739.939 308.559 740.131 308.745 740.347 308.928C740.786 309.297 741.57 309.472 742.299 309.234C742.928 309.025 743.292 308.473 742.848 308.107C742.632 307.924 742.435 307.735 742.223 307.555C741.784 307.186 741 307.011 740.271 307.249L740.276 307.246Z" fill="#936170"/>
<path d="M783.979 338.131C776.499 331.731 747.779 304.763 781.928 307.849C797.015 309.173 811.273 313.937 823.74 318.365C834.443 322.123 844.742 326.405 854.767 330.788L809.395 356.983C800.478 350.893 791.781 344.705 783.979 338.131Z" fill="#FFF3DB"/>
<path d="M945.59 140.136C946.088 140.094 952.998 142.28 957.221 143.637L951.978 149.593L947.302 146.893C947.302 146.893 944.873 140.196 945.59 140.136Z" fill="#FEB8AC"/>
<path d="M934.812 151.502C933.809 149.969 936.206 138.163 940.524 136.372C944.841 134.582 959.76 140.762 959.76 140.762L957.232 143.637C953.004 142.277 946.099 140.094 945.601 140.136C944.884 140.196 947.313 146.893 947.313 146.893C947.313 146.893 948.506 155.125 947.886 155.836C947.267 156.548 935.825 153.034 934.822 151.502L934.812 151.502Z" fill="#352328"/>
<path d="M958.071 121.544C957.153 121.372 949.436 124.298 949.436 124.298C949.436 124.298 945.838 125.787 945.124 125.612C944.409 125.436 944.985 121.017 947.742 119.477C956.507 117.658 980.275 120.693 1002.46 140.988L997.138 140.62C976.686 124.124 958.076 121.541 958.076 121.541L958.071 121.544Z" fill="#352328"/>
<path d="M949.441 124.295C949.441 124.295 957.153 121.366 958.076 121.541C958.076 121.541 976.686 124.124 997.138 140.62L965.253 138.407L949.441 124.295Z" fill="#FEB8AC"/>
<path d="M942.173 175.698C936.981 171.008 951.974 158.676 951.974 158.676C942.854 140.209 966.826 132.385 990.964 136.165C1015.1 139.945 1102.85 187.559 1102.85 187.559L1049.02 218.633L985.68 169.46C959.845 183.908 947.364 180.389 942.173 175.698Z" fill="#593A42"/>
<path d="M1079.11 201.263L1049.03 218.633L985.681 169.46C985.681 169.46 989.985 167.506 994.765 164.318C994.765 164.318 1057.4 191.871 1079.11 201.263Z" fill="#352328"/>
<path d="M966.113 151.146C970.759 153.829 977.569 154.246 981.319 152.082C985.068 149.917 984.345 145.985 979.699 143.303C975.052 140.62 968.242 140.203 964.493 142.367C960.744 144.532 961.467 148.464 966.113 151.146Z" fill="#352328"/>
<path d="M970.128 148.828C971.586 149.67 973.578 149.889 974.575 149.314C975.571 148.739 975.195 147.592 973.732 146.747C972.269 145.902 970.282 145.686 969.286 146.261C968.29 146.836 968.665 147.983 970.128 148.828Z" fill="#191113"/>
<path d="M958.11 155.213C959.568 156.055 961.556 156.272 962.552 155.696C963.548 155.121 963.173 153.974 961.714 153.132C960.256 152.29 958.264 152.071 957.268 152.646C956.272 153.221 956.647 154.368 958.11 155.213Z" fill="#191113"/>
<path d="M940.447 175.679C943.393 177.38 948.829 177.004 952.578 174.839C956.328 172.674 956.979 169.536 954.033 167.835C951.087 166.134 945.651 166.51 941.902 168.675C938.152 170.839 937.496 173.975 940.447 175.679Z" fill="#191113"/>
<path d="M944.843 168.044C946.646 167.426 948.825 167.377 950.71 167.864C952.029 168.204 950.893 169.334 949.588 168.997C948.427 168.697 947.034 168.794 945.95 169.168C944.702 169.598 943.595 168.473 944.853 168.044L944.843 168.044Z" fill="#593A42"/>
<path d="M951.243 168.687C951.53 168.401 952.278 168.238 952.778 168.44C953.026 168.536 953.283 168.627 953.531 168.724C954.031 168.926 954.271 169.279 953.939 169.607C953.653 169.893 952.905 170.056 952.405 169.854C952.162 169.754 951.899 169.666 951.652 169.57C951.151 169.368 950.912 169.015 951.238 168.684L951.243 168.687Z" fill="#593A42"/>
<path d="M978.429 163.03C978.429 163.03 991.505 160.344 994.528 164.586C997.55 168.828 975.89 169.096 975.89 169.096C975.89 169.096 978.356 166.931 978.434 163.033L978.429 163.03Z" fill="#FEB8AC"/>
<path d="M988.324 166.027C984.892 165.977 981.298 166.237 977.999 166.835C977.306 166.961 977.029 166.333 977.722 166.207C981.091 165.597 984.82 165.328 988.331 165.378C989.052 165.39 989.05 166.036 988.324 166.027Z" fill="#FC8686"/>
<path d="M977.072 159.288C979.391 161.881 979.476 164.606 977.824 167.363C975.575 171.122 970.811 173.262 964.926 175.073C964.288 175.27 963.732 174.706 964.376 174.512C969.616 172.902 973.734 171.129 976.236 167.932C978.365 165.213 978.447 162.249 976.088 159.616C975.759 159.247 976.738 158.921 977.067 159.291L977.072 159.288Z" fill="#352328"/>
<path d="M894.187 203.009C894.271 204.49 894.439 205.946 894.811 207.369C881.622 198.112 877.664 189.764 879.546 188.671C881.894 187.316 892.857 190.981 899.317 193.341C895.455 196.255 894.032 199.075 894.192 203.006L894.187 203.009Z" fill="#FA9700"/>
<path d="M894.187 203.009C894.026 199.078 895.455 196.261 899.312 193.344C902.141 194.376 904.112 195.161 904.112 195.161L899.265 210.305C897.675 209.323 896.193 208.34 894.806 207.372C894.438 205.946 894.265 204.493 894.182 203.012L894.187 203.009Z" fill="#FF740C"/>
<path d="M942.915 181.063C944.142 181.667 945.379 182.3 946.615 182.968L920.385 185.766C920.385 185.766 919.153 184.736 917.498 183.232C921.356 182.049 926.168 181.474 930.023 181.018C934.245 180.589 938.682 180.619 942.915 181.068L942.915 181.063Z" fill="#FF740C"/>
<path d="M909.15 171.58C911.087 170.461 926.345 172.918 942.92 181.066C938.687 180.616 934.25 180.586 930.027 181.015C926.177 181.474 921.361 182.046 917.503 183.229C913.43 179.536 906.752 172.964 909.155 171.577L909.15 171.58Z" fill="#FA9700"/>
<path d="M883.49 190.955C884.097 190.45 900.878 196.115 901.085 197.212C901.292 198.308 899.608 206.26 898.293 205.964C896.973 205.664 882.29 191.95 883.495 190.952L883.49 190.955Z" fill="#FEB8AC"/>
<path d="M913.099 173.86C912.225 174.211 922.037 183.899 923.936 184.018C925.835 184.138 939.609 183.165 939.095 182.406C938.576 181.644 914.823 173.167 913.094 173.863L913.099 173.86Z" fill="#FEB8AC"/>
<path d="M984.11 256.111C984.11 256.111 923.293 232.778 905.783 217.837C888.274 202.896 902.43 192.04 908.707 188.416C914.984 184.792 933.786 176.619 959.66 186.731C985.54 196.84 1025.95 231.953 1025.95 231.953L984.105 256.114L984.11 256.111Z" fill="#FFF3DB"/>
<path d="M909.677 187.879C916.767 184.065 934.994 177.097 959.66 186.731C985.539 196.841 1025.95 231.953 1025.95 231.953L1024.71 232.67C1001.18 207.682 957.536 184.424 909.677 187.879Z" fill="#FFF9EE"/>
<path d="M931.828 199.216C922.639 197.084 913.172 189.474 911.31 190.549C909.448 191.624 922.634 197.087 926.322 202.395C929.182 206.497 909.936 211.107 901.062 212.989C891.359 200.567 903.126 191.638 908.702 188.419C914.279 185.199 929.448 178.524 950.664 183.849C947.793 188.503 939.315 200.955 931.828 199.216Z" fill="#FA9700"/>
<path d="M922.019 228.303C929.553 230.734 937.831 232.484 946.476 233.782C963.803 236.398 981.534 237.862 997.115 243.158C998.741 243.698 1000.86 244.379 1003.04 245.184L984.11 256.111C984.11 256.111 946.608 241.719 922.019 228.303Z" fill="#FA9700"/>
<path d="M987.278 210.225C985.03 205.234 981.993 200.452 977.788 196.105C1001.02 210.299 1025.95 231.953 1025.95 231.953L1007.03 242.88C1005.64 241.622 1004.45 240.4 1003.52 239.461C994.344 230.472 991.805 220.231 987.278 210.225Z" fill="#FA9700"/>
<path d="M909.673 187.876C915.872 184.542 930.584 178.805 950.664 183.849C949.717 185.389 948.149 187.778 946.212 190.227C934.514 187.9 922.238 186.968 909.668 187.879L909.673 187.876Z" fill="#FF9E10"/>
<path d="M1025.95 231.953L1024.71 232.67C1014.32 221.634 1000 210.937 983.137 202.731C981.6 200.439 979.839 198.22 977.793 196.108C1001.03 210.302 1025.96 231.956 1025.96 231.956L1025.95 231.953Z" fill="#FF9E10"/>
<path d="M930.285 195.13C930.591 194.953 930.594 194.672 930.292 194.498C928.612 193.527 928.079 192.197 929.125 191.593C930.172 190.989 932.476 191.296 934.157 192.267C934.458 192.441 934.946 192.439 935.251 192.263C935.556 192.086 935.56 191.805 935.258 191.631C932.91 190.275 929.74 189.982 928.038 190.965C926.336 191.948 926.843 193.778 929.191 195.134C929.493 195.308 929.98 195.306 930.285 195.13Z" fill="#593A42"/>
<path d="M915.463 203.687C915.769 203.511 915.772 203.229 915.47 203.055C913.79 202.085 913.257 200.754 914.303 200.15C915.35 199.546 917.654 199.854 919.335 200.824C919.636 200.998 920.124 200.996 920.429 200.82C920.734 200.644 920.738 200.362 920.436 200.188C918.088 198.833 914.918 198.54 913.216 199.522C911.514 200.505 912.021 202.335 914.369 203.691C914.671 203.865 915.158 203.863 915.463 203.687Z" fill="#593A42"/>
<path d="M946.17 198.572C947.988 202.437 946 205.959 940.847 208.66C935.824 211.297 927.706 212.252 922.092 209.785C921.528 209.535 922.081 208.97 922.655 209.22C928.304 211.701 935.764 210.459 940.666 207.885C945.264 205.471 946.674 202.111 945.084 198.737C944.895 198.333 945.986 198.165 946.175 198.569L946.17 198.572Z" fill="#593A42"/>
<path d="M941.043 208.022C938.967 206.835 937.132 205.497 934.725 204.512C934.141 204.273 934.699 203.706 935.288 203.947C937.784 204.966 939.684 206.329 941.844 207.559C942.354 207.853 941.558 208.313 941.043 208.022Z" fill="#593A42"/>
<path d="M924.902 206.177C927.848 207.878 933.284 207.502 937.033 205.337C940.783 203.172 941.439 200.037 938.488 198.333C935.537 196.629 930.106 197.008 926.357 199.173C922.607 201.338 921.951 204.473 924.902 206.177Z" fill="#593A42"/>
<path d="M929.609 198.357C931.411 197.739 933.59 197.69 935.475 198.178C936.795 198.517 935.658 199.647 934.354 199.31C933.193 199.01 931.799 199.107 930.716 199.481C929.462 199.914 928.36 198.786 929.619 198.357L929.609 198.357Z" fill="#936170"/>
<path d="M936.014 198.997C936.3 198.711 937.048 198.548 937.548 198.75C937.796 198.847 938.059 198.935 938.301 199.034C938.801 199.236 939.041 199.589 938.714 199.92C938.433 200.208 937.68 200.369 937.18 200.167C936.937 200.067 936.679 199.982 936.427 199.883C935.927 199.686 935.687 199.328 936.019 199L936.014 198.997Z" fill="#936170"/>
<path d="M813.835 188.472C817.397 187.06 802.929 175.574 808.18 170.253C813.431 164.933 823.145 156.334 814.388 156.595C805.635 156.854 785.536 166.341 787.564 172.795C789.603 179.25 805.482 191.787 813.84 188.474L813.835 188.472Z" fill="#352328"/>
<path d="M787.553 172.79C785.52 166.339 805.63 156.852 814.377 156.59C816.517 156.525 817.546 156.998 817.816 157.812C816.44 158.55 815.148 159.347 813.944 160.236C805.494 166.073 798.45 177.52 800.717 185.771C794.464 182.207 788.722 176.499 787.553 172.79Z" fill="#593A42"/>
<path d="M829.872 215.627C836.934 215.271 845.221 213.026 845.221 213.026C863.002 224.032 890.036 234.16 915.092 242.136C854.98 238.019 829.877 215.63 829.877 215.63L829.872 215.627Z" fill="#EFDCBD"/>
<path d="M796.672 217.29C784.393 206.657 774.609 194.801 797.67 185.642C820.731 176.483 838.365 188.623 837.79 188.956C837.214 189.288 879.729 190.124 875.297 200.12C870.865 210.115 845.216 213.023 845.216 213.023C845.216 213.023 836.93 215.268 829.868 215.624C829.868 215.624 854.971 238.013 915.083 242.13C948.378 252.723 978.189 259.518 978.189 259.518L910.571 298.557C864.125 273.736 809.331 228.251 796.672 217.284L796.672 217.29Z" fill="#FFF3DB"/>
<path d="M822.613 210.395C822.613 210.395 811.262 214.038 814.432 217.909C817.608 221.783 831.426 213.143 831.426 213.143C831.426 213.143 827.302 212.796 822.613 210.395Z" fill="#FEB8AC"/>
<path d="M871.874 191.097C875.067 192.941 874.358 196.335 870.294 198.682C866.229 201.029 860.35 201.438 857.157 199.594C853.964 197.751 854.673 194.356 858.737 192.01C862.802 189.663 868.686 189.257 871.874 191.097Z" fill="#593A42"/>
<path d="M826.064 199.55C828.177 198.33 827.545 196.058 824.634 194.377C824.263 194.163 823.651 194.163 823.271 194.382C822.89 194.602 822.886 194.952 823.262 195.169C825.348 196.373 826.011 198.022 824.71 198.774C823.408 199.525 820.553 199.142 818.467 197.938C818.096 197.724 817.484 197.723 817.104 197.943C816.723 198.162 816.719 198.513 817.095 198.73C820.006 200.411 823.942 200.775 826.054 199.556L826.064 199.55Z" fill="#593A42"/>
<path d="M838.499 192.371C840.611 191.151 839.98 188.879 837.068 187.198C836.698 186.984 836.086 186.983 835.705 187.203C835.325 187.423 835.321 187.773 835.697 187.99C837.783 189.194 838.446 190.843 837.145 191.595C835.843 192.346 832.987 191.963 830.901 190.759C830.531 190.545 829.919 190.544 829.538 190.764C829.158 190.983 829.154 191.334 829.53 191.55C832.441 193.231 836.377 193.596 838.489 192.376L838.499 192.371Z" fill="#593A42"/>
<path d="M819.261 215.869C821.416 214.402 824.036 213.095 826.868 212.071C827.447 211.862 827.959 212.388 827.379 212.597C824.623 213.589 822.102 214.862 819.997 216.294C819.556 216.595 818.825 216.167 819.261 215.869Z" fill="#FC8686"/>
<path d="M857.213 194.043C856.052 195.17 855.967 196.531 856.874 197.708C857.517 198.53 859.634 197.822 859.001 197.006C858.432 196.278 858.621 195.41 859.324 194.73C860.129 193.946 858.017 193.259 857.213 194.043Z" fill="#936170"/>
<path d="M858.418 198.044C857.878 198.225 857.575 198.691 857.95 199.005C858.137 199.16 858.299 199.323 858.482 199.474C858.851 199.786 859.521 199.936 860.14 199.733C860.674 199.555 860.983 199.086 860.608 198.772C860.421 198.617 860.259 198.454 860.076 198.303C859.707 197.991 859.037 197.841 858.423 198.042L858.418 198.044Z" fill="#936170"/>
<path d="M795.293 199.656C797.282 197.446 776.112 190.183 776.388 184.094C776.653 178.005 777.06 169.026 769.52 171.655C761.98 174.285 751.991 188.094 759.108 193.175C766.225 198.255 790.625 204.845 795.298 199.659L795.293 199.656Z" fill="#352328"/>
<path d="M895.726 251.56C885.79 247.228 885.925 239.838 891.048 233.952C899.025 236.87 907.157 239.611 915.088 242.138C922.365 244.455 929.485 246.589 936.154 248.514C926.971 254.496 905.957 256.143 895.725 251.565L895.726 251.56Z" fill="#593A42"/>
<path d="M815.908 224.973C821.019 229.722 824.529 234.476 822.663 238.63C810.383 228.928 801.034 221.067 796.678 217.292C794.485 215.39 792.367 213.451 790.509 211.494C802.959 212.85 808.004 217.311 815.908 224.973Z" fill="#593A42"/>
<path d="M939.254 282.009L910.581 298.563C900.557 293.203 890.136 286.88 879.839 280.149C883.946 278.405 888.892 276.908 894.215 275.536C912.001 271.083 929.712 273.129 939.264 282.009L939.254 282.009Z" fill="#593A42"/>
<path d="M820.005 207.334C822.026 210.397 826.345 212.041 831.674 212.863C836.302 213.576 840.747 212.773 845.1 211.829C845.733 211.692 845.991 212.28 845.362 212.414C840.332 213.509 835.759 214.123 830.5 213.312C825.142 212.485 820.975 210.496 818.994 207.496C818.754 207.132 819.775 206.976 820.01 207.337L820.005 207.334Z" fill="#593A42"/>
<path d="M891.048 233.953L891.058 233.958C892.965 234.655 894.873 235.34 896.79 236.014C897.147 236.139 897.504 236.264 897.861 236.389C899.357 236.912 900.854 237.429 902.345 237.938C902.89 238.125 903.436 238.307 903.976 238.492C905.334 238.952 906.697 239.404 908.055 239.852C908.58 240.029 909.11 240.202 909.636 240.372C911.46 240.969 913.279 241.562 915.083 242.136C905.167 241.457 896.207 240.278 888.145 238.785C888.715 237.126 889.703 235.488 891.038 233.953L891.048 233.953Z" fill="#352328"/>
<path d="M759.103 193.171C751.986 188.091 761.981 174.285 769.515 171.652C771.682 170.898 773.187 171.102 774.233 171.919C771.977 176.692 770.665 181.633 771.581 186.504C773.214 194.562 782.546 198.175 793.86 200.644C786.936 203.825 765.667 197.857 759.103 193.171Z" fill="#593A42"/>
<path d="M924.817 290.344C924.817 290.344 874.214 257.261 832.788 251.494C791.362 245.732 782.222 261.882 785.69 272.219C785.69 272.219 781.994 282.287 771.69 287.944C771.69 287.944 794.654 295.844 806.616 279.538C806.616 279.538 825.151 270.303 848.865 280.122C872.574 289.943 874.304 319.508 874.304 319.508L924.817 290.344Z" fill="#FF740C"/>
<path d="M785.496 272.708C801.503 270.829 806.616 279.538 806.616 279.538C794.659 295.847 771.69 287.945 771.69 287.945C780.653 283.027 784.613 274.776 785.491 272.705L785.496 272.708Z" fill="#FFF3DB"/>
<path d="M866.076 277.331C892.438 282.447 907.809 290.084 915.962 295.457L874.299 319.511C874.299 319.511 872.574 289.943 848.86 280.125C825.151 270.303 806.611 279.541 806.611 279.541C806.611 279.541 821.577 268.697 866.071 277.334L866.076 277.331Z" fill="#ED4714"/>
<path d="M769.391 290.362C773.618 290.439 777.149 289.125 777.277 287.424C777.405 285.729 774.078 284.294 769.851 284.218C765.624 284.141 762.097 285.458 761.969 287.153C761.841 288.848 765.168 290.283 769.396 290.359L769.391 290.362Z" fill="#593A42"/>
<path d="M796.559 257.685C795.719 256.703 798.754 250.705 801.779 250.203C804.804 249.7 826.727 258.549 827.901 262.169C829.065 265.789 805.227 259.604 803.06 259.474C800.888 259.341 806.414 262.109 804.714 262.394C803.02 262.682 798.464 259.907 796.559 257.685Z" fill="#593A42"/>
<path d="M792.481 269.885C793.88 270.693 795.737 270.933 796.628 270.419C797.519 269.904 797.103 268.832 795.704 268.024C794.306 267.217 792.448 266.976 791.557 267.491C790.666 268.005 791.077 269.075 792.481 269.885Z" fill="#593A42"/>
<path d="M794.86 276.08C799.202 277.038 803.317 279.616 799.965 282.282C799.408 282.723 798.125 282.311 798.687 281.867C801.421 279.689 798.001 277.685 794.478 276.905C793.605 276.713 793.982 275.885 794.86 276.08Z" fill="#593A42"/>
<path d="M765.524 285.066C766.247 284.946 766.949 284.866 767.705 284.869C769.615 284.873 769.452 286.577 767.552 286.572C767.059 286.571 766.596 286.656 766.127 286.733C764.294 287.038 763.7 285.372 765.529 285.069L765.524 285.066Z" fill="#936170"/>
<path d="M770.522 284.715C771.104 284.676 771.586 284.688 772.158 284.752C772.948 284.844 773.339 285.406 773.116 285.814C772.852 286.292 772.049 286.47 771.265 286.381C771.215 286.381 771.17 286.378 771.12 286.379C770.324 286.433 769.55 286.218 769.377 285.73C769.232 285.311 769.725 284.77 770.522 284.715Z" fill="#936170"/>
<path d="M727.406 332.484C727.406 332.484 723.017 329.442 720.239 326.057C722.78 326.12 725.337 326.053 727.852 325.817L729.473 330.383L727.401 332.487L727.406 332.484Z" fill="#EFDCBD"/>
<path d="M720.244 326.054C719.409 325.041 718.724 323.998 718.347 322.994C718.212 322.633 718.141 322.263 718.115 321.884C717.239 321.488 716.429 320.951 716.252 320.368C716.102 320.004 716.275 319.596 717.026 319.596C717.608 319.597 718.028 319.885 718.358 320.134C718.364 320.119 718.374 320.108 718.369 320.094C717.553 319.229 716.259 318.355 716.2 317.35C716.21 316.917 716.606 316.625 717.37 316.777C718.299 316.955 718.903 317.639 719.376 318.08C719.326 317.589 718.946 315.046 719.534 314.495C720.072 314.008 720.59 314.388 720.844 314.777C721.119 315.184 721.173 315.638 721.163 316.089C723.781 313.693 727.54 312.054 730.307 312.756C736.002 314.194 726.519 322.094 726.519 322.094L727.842 325.811C725.327 326.047 722.765 326.111 720.229 326.052L720.244 326.054Z" fill="#FFF3DB"/>
<path d="M709.107 335.509C709.107 335.509 706.065 330.325 708.432 329.974C710.793 329.627 712.376 333.621 712.376 333.621C712.376 333.621 714.275 327.348 717.04 327.915C719.809 328.485 717.55 332.666 717.55 332.666C717.55 332.666 729.843 327.938 733.246 326.989C736.648 326.04 743.289 325.591 740.74 329.431L746.289 334.178C746.289 334.178 756.553 326.221 764.048 329.005C771.539 331.786 772.827 335.443 771.64 336.128C770.454 336.813 767.803 336.311 767.803 336.311C767.803 336.311 773.743 339.012 772.068 340.664C770.957 341.762 766.868 340.401 766.868 340.401C766.868 340.401 772.067 344.449 769.465 345.842C768.079 346.586 763.852 344.694 763.852 344.694C763.852 344.694 765.002 349.606 761.896 350.212C758.796 350.821 750.539 349.829 750.539 349.829C750.539 349.829 766.575 353.601 770.966 356.819C775.353 360.039 773.424 361.324 769.882 361.337C769.882 361.337 779.567 365.9 783.485 371.931L747.113 392.93C747.113 392.93 712.813 346.394 708.741 341.297C708.741 341.297 698.524 337.155 700.4 335.279C702.246 333.432 709.097 335.503 709.097 335.503L709.107 335.509Z" fill="#FFF3DB"/>
<path d="M772.215 372.302C768.621 369.742 756.977 364.314 766.334 361.948C762.587 360.755 753.696 358.211 760.961 356.094C757.485 355.544 744.409 353.659 744.718 350.924C744.918 348.976 750.792 349.518 755.683 350.295C752.969 350.127 750.539 349.834 750.539 349.834C750.539 349.834 766.575 353.607 770.966 356.825C775.353 360.045 773.424 361.33 769.882 361.343C769.882 361.343 779.567 365.906 783.485 371.936L765.424 382.364C764.049 381.211 763.083 379.931 762.81 378.525C762.148 375.391 766.507 372.076 772.215 372.296L772.215 372.302Z" fill="#EFDCBD"/>
<path d="M729.338 314.08C730.965 315.812 725.147 321.631 725.147 321.631L727.378 330.896C727.378 330.896 720.667 322.779 720.295 321.807C719.923 320.834 727.287 311.914 729.328 314.08L729.338 314.08Z" fill="#FEB8AC"/>
<path d="M689.472 338.94C689.917 338.717 690.568 338.775 691.1 338.834C691.085 338.825 691.08 338.811 691.065 338.797C689.457 338.464 687.474 338.307 686.283 337.579C685.799 337.254 685.764 336.886 686.517 336.708C687.424 336.487 688.67 336.766 689.529 336.915C688.931 336.57 685.747 334.818 685.564 334.187C685.416 333.622 686.251 333.705 686.886 333.898C687.56 334.097 688.119 334.413 688.627 334.753C687.882 331.976 688.876 329.325 691.781 328.794C697.757 327.701 699.554 337.183 699.554 337.183L711.242 342.227L712.067 344.581C712.067 344.581 700.563 343.575 694.344 340.967C693.829 340.751 693.354 340.5 692.905 340.229C691.785 340.264 690.558 340.174 689.756 339.809C689.231 339.593 688.897 339.227 689.462 338.94L689.472 338.94Z" fill="#FFF3DB"/>
<path d="M692.543 330.153C695.753 330.822 697.965 337.364 697.965 337.364L710.311 342.782C710.311 342.782 695.868 339.916 694.477 339.333C693.085 338.749 688.508 329.309 692.543 330.147L692.543 330.153Z" fill="#FEB8AC"/>
<path d="M731.3 337.49C731.47 337.9 731.346 338.273 730.945 338.597C729.806 339.517 727.005 339.57 722.607 338.736C722.393 338.694 722.28 338.565 722.356 338.441C722.422 338.318 722.657 338.251 722.87 338.293C727.884 339.24 729.674 338.828 730.291 338.329C730.557 338.118 730.63 337.883 730.513 337.607C730.184 336.816 728.393 335.932 727.222 335.598C727.059 335.549 726.965 335.443 727.011 335.337C727.052 335.234 727.212 335.158 727.401 335.152C728.685 335.124 730.012 335.214 731.467 335.424C731.711 335.461 731.964 335.497 732.222 335.536C733.528 335.735 735.008 335.966 736.229 335.757C736.652 335.684 736.942 335.551 737.084 335.361C737.25 335.133 737.204 334.835 736.939 334.537C736.408 333.896 735.238 333.555 734.103 333.223L733.855 333.15C733.696 333.104 733.608 333.001 733.644 332.895C733.68 332.794 733.825 332.716 734.009 332.707C734.312 332.691 734.616 332.676 734.925 332.663C736.353 332.598 737.831 332.532 739.068 332.189C739.657 332.014 739.978 331.818 740.01 331.611C740.058 331.303 739.505 330.88 738.51 330.456C738.332 330.382 738.294 330.233 738.429 330.126C738.555 330.019 738.819 329.998 739.002 330.075C739.888 330.448 740.921 331.027 740.83 331.645C740.771 332.027 740.305 332.348 739.437 332.609C738.204 332.95 736.835 333.044 735.492 333.106C736.374 333.396 737.211 333.758 737.682 334.319C738.056 334.737 738.115 335.182 737.843 335.539C737.747 335.668 737.611 335.781 737.441 335.879C737.191 336.024 736.861 336.134 736.468 336.201C735.023 336.442 733.428 336.198 732.018 335.985C731.765 335.943 731.517 335.909 731.283 335.873C730.439 335.75 729.644 335.672 728.878 335.635C729.943 336.11 731.049 336.801 731.33 337.484L731.3 337.49Z" fill="#EFDCBD"/>
<path d="M732.762 344.854C732.643 344.745 732.7 344.604 732.89 344.529C733.079 344.459 733.333 344.49 733.451 344.598C734.032 345.125 734.868 345.567 736.008 345.947C738.213 346.66 739.115 346.579 739.475 346.388C740.171 345.987 738.977 345.043 738.587 344.76C738.035 344.332 737.357 344.027 736.573 343.857C736.399 343.827 736.265 343.801 736.171 343.781C735.972 343.736 735.869 343.607 735.935 343.489C736.006 343.368 736.226 343.304 736.434 343.338C736.588 343.363 736.732 343.389 736.881 343.423C737.755 343.569 739.131 343.682 739.775 343.487C739.945 343.434 740.04 343.368 740.081 343.276C740.132 343.167 740.098 343.078 739.985 342.989C739.393 342.543 737.037 342.362 735.962 342.366C735.734 342.367 735.556 342.264 735.557 342.132C735.559 342 735.739 341.896 735.968 341.895C736.007 341.895 739.588 341.917 740.629 342.697C740.901 342.9 740.983 343.138 740.871 343.385C740.774 343.607 740.523 343.786 740.149 343.899C739.72 344.027 739.167 344.066 738.6 344.057C738.823 344.185 739.035 344.319 739.232 344.474C740.569 345.454 740.859 346.251 740.033 346.728C738.782 347.393 736.388 346.618 735.6 346.359C734.347 345.936 733.417 345.446 732.767 344.856L732.762 344.854Z" fill="#EFDCBD"/>
<path d="M746.693 365.839C746.898 365.789 747.136 365.846 747.224 365.966C747.592 366.49 749.037 367.151 750.426 367.439C751.245 367.605 751.942 367.626 752.371 367.492C752.89 367.318 753.147 367.056 753.17 366.694C753.209 365.878 751.958 364.768 750.858 364.359C750.67 364.291 750.622 364.147 750.737 364.04C750.853 363.928 751.107 363.896 751.29 363.961C753.258 364.64 755.402 365.075 755.782 364.872C755.862 364.826 755.894 364.619 755.501 364.144C754.219 362.652 751.417 361.034 748.828 360.291C748.655 360.243 748.567 360.128 748.622 360.022C748.673 359.913 748.848 359.84 749.042 359.848C750.663 359.905 753.44 359.775 753.598 358.935C753.651 358.677 753.519 358.456 753.188 358.259C752.096 357.594 749.168 357.401 747.909 357.448C747.685 357.458 747.493 357.358 747.484 357.232C747.471 357.103 747.646 356.99 747.87 356.98C749.149 356.933 752.42 357.105 753.779 357.935C754.268 358.235 754.483 358.59 754.399 358.981C754.214 359.984 752.087 360.253 750.509 360.314C752.838 361.195 755.061 362.589 756.22 363.934C756.406 364.158 756.976 364.839 756.345 365.203C756.335 365.209 756.325 365.215 756.315 365.221C755.68 365.559 754.23 365.317 752.965 364.997C753.556 365.518 753.992 366.139 753.966 366.708C753.947 367.096 753.715 367.418 753.279 367.67C753.124 367.759 752.949 367.838 752.749 367.907C752.09 368.111 751.185 368.102 750.133 367.888C748.5 367.552 746.917 366.806 746.456 366.158C746.368 366.038 746.479 365.9 746.683 365.85L746.693 365.839Z" fill="#EFDCBD"/>
<path d="M726.218 359.15C726.235 359.021 726.42 358.92 726.649 358.925C726.868 358.929 727.045 359.038 727.029 359.167C726.928 360.259 727.909 361.496 729.708 361.679C730.354 361.717 730.897 361.609 731.233 361.38C731.594 361.132 731.687 360.764 731.488 360.366C731.439 360.263 731.515 360.156 731.67 360.095C731.834 360.04 732.038 360.054 732.167 360.128C733.561 360.933 735.077 361.501 735.525 361.396C735.755 361.332 735.815 361.257 735.836 361.206C735.999 360.826 735.047 360.103 734.643 359.794L734.534 359.708C734.396 359.606 734.427 359.462 734.617 359.381C734.792 359.303 735.051 359.325 735.184 359.425L735.292 359.51C735.85 359.936 736.886 360.725 736.625 361.321C736.585 361.418 736.494 361.539 736.299 361.652C736.188 361.716 736.038 361.779 735.849 361.832C734.921 362.048 733.401 361.407 732.397 360.902C732.359 361.198 732.172 361.466 731.856 361.683C731.33 362.038 730.542 362.201 729.583 362.145C727.238 361.906 726.1 360.423 726.218 359.15Z" fill="#EFDCBD"/>
<path d="M724.552 350.541C724.466 350.705 724.32 350.846 724.125 350.959C723.929 351.072 723.68 351.159 723.386 351.214C722.937 351.302 722.455 351.272 721.974 351.122C720.849 350.778 719.879 349.826 719.636 349.298C719.578 349.172 719.704 349.042 719.923 349.007C720.142 348.972 720.365 349.043 720.418 349.172C720.598 349.553 721.419 350.42 722.366 350.707C722.649 350.795 722.902 350.814 723.142 350.767C723.481 350.697 723.686 350.584 723.777 350.406C724.072 349.836 723.178 348.794 722.591 348.374C722.453 348.277 722.479 348.136 722.659 348.044C722.834 347.96 723.088 347.979 723.231 348.079C723.823 348.507 724.974 349.721 724.552 350.535L724.552 350.541Z" fill="#EFDCBD"/>
<path d="M719.034 348.39C719.034 348.39 718.999 348.41 718.984 348.419C718.564 348.662 717.966 348.744 717.32 348.637C715.608 348.313 714.866 346.07 714.875 345.272C714.881 345.143 715.062 345.039 715.286 345.035C715.509 345.037 715.687 345.14 715.691 345.269C715.682 346.125 716.492 347.986 717.564 348.188C717.927 348.247 718.23 348.209 718.436 348.073C718.756 347.871 718.835 347.5 718.62 347.168C718.541 347.048 718.647 346.912 718.857 346.866C719.066 346.819 719.299 346.878 719.378 346.999C719.706 347.494 719.565 348.055 719.034 348.39Z" fill="#EFDCBD"/>
<path d="M765.479 366.442C765.703 366.421 765.906 366.51 765.945 366.636C766.198 367.603 768.44 370.383 770.606 370.183C770.9 370.15 771.08 370.063 771.191 369.908C771.419 369.565 771.197 368.974 770.828 368.577C770.724 368.482 770.636 368.402 770.562 368.336C770.444 368.233 770.475 368.09 770.655 368.014C770.835 367.939 771.078 367.958 771.217 368.055C771.315 368.124 771.414 368.215 771.512 368.313C771.621 368.41 771.729 368.519 771.862 368.636C772.728 369.454 774.535 371.162 775.576 371.052C776.084 370.987 776.22 370.828 776.276 370.716C776.713 369.859 774.263 367.803 773.408 367.309C773.25 367.218 773.252 367.069 773.412 366.976C773.572 366.884 773.831 366.883 773.989 366.974C774.651 367.356 777.66 369.666 777.055 370.843C776.989 370.966 776.874 371.108 776.658 371.232C776.443 371.356 776.153 371.455 775.73 371.511C774.545 371.636 773.335 370.822 772.098 369.732C772.082 369.85 772.041 369.965 771.965 370.071C771.758 370.385 771.343 370.585 770.755 370.644C767.882 370.911 765.454 367.792 765.163 366.71C765.129 366.581 765.28 366.46 765.504 366.439L765.479 366.442Z" fill="#FFF3DB"/>
<path d="M740.391 374.483L740.338 374.388C740.264 374.265 740.385 374.133 740.599 374.089C740.809 374.048 741.042 374.113 741.11 374.233L741.164 374.328C741.813 375.477 743.175 377.87 745.36 378.155C745.668 378.188 746.061 378.201 746.211 378.086C746.497 377.864 746.197 377.135 745.514 376.394C745.405 376.28 745.487 376.136 745.681 376.075C745.881 376.011 746.124 376.053 746.232 376.167C746.572 376.531 747.622 377.774 746.865 378.359C746.83 378.385 746.79 378.414 746.75 378.437C746.414 378.631 745.891 378.693 745.181 378.612C742.543 378.269 741.084 375.71 740.391 374.477L740.391 374.483Z" fill="#EFDCBD"/>
<path d="M747.973 375.299C748.167 375.233 748.416 375.266 748.529 375.378C750.345 377.137 752.203 378.285 753.055 378.164C753.473 378.105 753.777 377.645 753.889 376.895C753.911 376.768 754.106 376.667 754.334 376.678C754.558 376.685 754.726 376.8 754.7 376.929C754.587 377.662 754.313 378.151 753.858 378.414C753.678 378.518 753.473 378.585 753.234 378.62C751.411 378.874 748.844 376.606 747.825 375.619C747.712 375.507 747.773 375.363 747.968 375.297L747.973 375.299Z" fill="#EFDCBD"/>
<path d="M750.177 339.348C753.581 340.533 758.929 339.055 762.116 336.045C765.302 333.035 765.121 329.63 761.717 328.445C758.312 327.26 752.964 328.738 749.777 331.748C746.591 334.758 746.772 338.163 750.177 339.348Z" fill="#593A42"/>
<path d="M755.156 329.31C756.829 328.721 759.133 328.629 760.787 329.249C761.699 329.591 760.651 330.361 759.749 330.026C758.768 329.662 757.136 329.742 756.157 330.09C755.233 330.418 754.217 329.647 755.151 329.313L755.156 329.31Z" fill="#936170"/>
<path d="M761.99 329.782C762.566 329.929 762.986 330.189 763.186 330.536C763.528 331.126 761.952 331.494 761.61 330.897C761.547 330.786 761.508 330.728 761.324 330.68C760.332 330.425 761.003 329.524 761.99 329.782Z" fill="#936170"/>
<path d="M742.049 334.771C742.983 335.311 744.25 335.447 744.886 335.08C745.522 334.713 745.281 333.978 744.352 333.442C743.423 332.905 742.146 332.763 741.51 333.13C740.874 333.497 741.115 334.232 742.049 334.771Z" fill="#593A42"/>
<path d="M734.681 339.025C735.615 339.565 736.882 339.701 737.518 339.334C738.153 338.967 737.913 338.232 736.983 337.696C736.054 337.159 734.777 337.018 734.142 337.385C733.506 337.752 733.747 338.486 734.681 339.025Z" fill="#593A42"/>
</g>
</g>
<g clip-path="url(#clip2_57_2)">
<path d="M438.597 -199.988C427.703 -199.988 418.936 -194.927 401.403 -184.804L36.8018 25.6987C36.4497 25.902 36.1011 26.1033 35.7561 26.3026L31.4213 13.2981L13.168 7.39261L10.4837 11.6875V46.5834L10.5299 46.5533C10.5107 46.7587 10.5011 46.9653 10.5011 47.1732C10.5012 53.4629 19.268 58.5244 36.8018 68.6475L286.508 212.816C304.042 222.939 312.809 228 323.703 228C334.597 228 343.364 222.939 360.898 212.816L725.498 2.31316C742.807 -7.67981 751.572 -12.7406 751.795 -18.9192L751.888 -18.9136V-54.3463L737.393 -50.0515L720.355 -43.6049L475.792 -184.804C458.258 -194.927 449.492 -199.988 438.597 -199.988Z" fill="#E44449"/>
<rect width="374.233" height="506.902" rx="21.4744" transform="matrix(0.866025 0.5 -0.866026 0.5 438.597 -242)" fill="#F15156"/>
<g clip-path="url(#clip3_57_2)">
<path d="M259.127 49.6213C246.27 43.1922 232.068 32.311 233.834 31.0008C235.508 29.7655 254.441 31.9738 262.766 33.0175C259.817 35.6847 259.049 39.0045 258.598 42.0789C258.277 44.6274 258.408 47.1599 259.122 49.6184L259.127 49.6213Z" fill="#FA9700"/>
<path d="M258.603 42.0816C259.054 39.0071 259.817 35.6845 262.771 33.0202C265.15 33.3188 266.67 33.52 266.67 33.52L267.074 53.0182C264.605 52.1886 261.898 51.0067 259.132 49.624C258.423 47.1625 258.286 44.633 258.608 42.0845L258.603 42.0816Z" fill="#F27006"/>
<path d="M352.646 69.1818C348.311 76.2221 336.786 80.3306 325.272 83.388L302.044 68.2607L332.423 48.1018C337.214 48.9142 342.044 49.8013 346.879 50.7486C352.891 56.2836 356.516 62.7463 352.641 69.1847L352.646 69.1818Z" fill="#F27006"/>
<path d="M352.646 69.1817C356.517 62.7462 352.891 56.2835 346.884 50.7455C404.133 61.9493 462.262 81.3777 462.262 81.3777L388.011 124.246L325.277 83.3907C336.791 80.3333 348.311 76.2277 352.651 69.1845L352.646 69.1817Z" fill="#FA9700"/>
<path d="M233.709 31.4838C242.395 31.3832 250.274 35.4353 255.498 39.4454C259.927 42.9386 261.511 46.8069 261.586 50.8099C249.154 45.0944 234.336 34.1752 233.704 31.4866L233.709 31.4838Z" fill="#FEB8AC"/>
<path d="M344.486 73.4361C362.968 62.766 334.678 42.4391 320.791 32.826C306.899 23.2159 282.717 22.1611 269.196 29.9672C255.676 37.7733 257.502 51.7352 274.148 59.7557C290.793 67.7763 326.005 84.1063 344.486 73.4361Z" fill="#FFF3DB"/>
<path d="M272.382 28.3789C286.256 22.3721 307.926 23.93 320.781 32.826C327.718 37.6224 338.241 45.0967 344.738 52.7035C328.375 47.0482 311.138 49.4717 302.684 45.7175C294.407 42.043 278.967 32.5104 272.377 28.376L272.382 28.3789Z" fill="#FA9700"/>
<path d="M266.44 31.8095C273.596 35.6172 290.112 44.5286 296.476 49.307C302.979 54.1884 298.781 64.1402 308.576 73.5872C295.401 69.8358 282.46 63.7574 274.148 59.7557C258.734 52.3309 256.041 39.8224 266.445 31.8123L266.44 31.8095Z" fill="#FA9700"/>
<path d="M294.176 56.3082C291.689 57.7446 287.062 57.3163 283.632 55.3358C283.192 55.0818 283.197 54.6682 283.642 54.411C284.088 54.1538 284.804 54.1512 285.244 54.4052C287.695 55.8206 291.058 56.2707 292.59 55.3864C294.122 54.502 293.337 52.5635 290.885 51.1481C290.445 50.8941 290.45 50.4805 290.895 50.2233C291.341 49.9661 292.057 49.9635 292.497 50.2175C295.927 52.198 296.664 54.8718 294.181 56.3053L294.176 56.3082Z" fill="#593A42"/>
<path d="M316.782 43.2566C314.3 44.69 309.668 44.2647 306.238 42.2841C305.798 42.0302 305.803 41.6166 306.248 41.3594C306.694 41.1022 307.41 41.0995 307.85 41.3535C310.302 42.769 313.664 43.2191 315.196 42.3347C316.728 41.4504 315.943 39.5119 313.491 38.0964C313.051 37.8424 313.056 37.4289 313.501 37.1717C313.947 36.9144 314.663 36.9118 315.103 37.1658C318.534 39.1464 319.27 41.8202 316.787 43.2537L316.782 43.2566Z" fill="#593A42"/>
<path d="M342.114 62.0724C345.87 64.2413 345.036 68.239 340.26 70.9962C335.485 73.7533 328.556 74.2381 324.799 72.0692C321.042 69.9003 321.872 65.9055 326.657 63.1425C331.443 60.3796 338.357 59.9035 342.114 62.0724Z" fill="#593A42"/>
<path d="M324.86 65.5382C323.493 66.8642 323.396 68.467 324.47 69.8502C325.22 70.821 327.717 69.9848 326.971 69.0226C326.304 68.1692 326.524 67.1461 327.349 66.3447C328.294 65.4223 325.816 64.6157 324.865 65.5353L324.86 65.5382Z" fill="#936170"/>
<path d="M326.276 70.2458C325.642 70.4578 325.288 71.0047 325.722 71.3764C325.939 71.5595 326.131 71.7454 326.347 71.9284C326.786 72.2973 327.57 72.4725 328.299 72.2343C328.928 72.0253 329.292 71.4725 328.848 71.1066C328.632 70.9236 328.435 70.7347 328.223 70.5546C327.784 70.1857 327 70.0105 326.271 70.2487L326.276 70.2458Z" fill="#936170"/>
<path d="M369.979 101.131C362.499 94.7308 333.779 67.763 367.928 70.8491C383.015 72.1726 397.273 76.9366 409.74 81.3654C420.443 85.1229 430.742 89.4046 440.767 93.7878L395.395 119.983C386.478 113.893 377.781 107.705 369.979 101.131Z" fill="#FFF3DB"/>
<path d="M382.672 -19.7102C370.393 -30.3428 360.609 -42.1993 383.67 -51.3584C406.731 -60.5174 424.365 -48.3765 423.79 -48.0441C423.214 -47.7118 465.729 -46.8761 461.297 -36.8803C456.865 -26.8846 431.216 -23.9767 431.216 -23.9767C431.216 -23.9767 422.93 -21.7323 415.868 -21.3763C415.868 -21.3763 440.971 1.01274 501.083 5.12995C534.378 15.7233 564.189 22.5184 564.189 22.5184L496.571 61.5575C450.125 36.7363 395.331 -8.74868 382.672 -19.7159L382.672 -19.7102Z" fill="#FFF3DB"/>
<path d="M525.254 45.0086L496.581 61.5629C486.557 56.2033 476.136 49.8802 465.839 43.1489C469.947 41.4051 474.892 39.9081 480.215 38.536C498.001 34.083 515.712 36.1292 525.264 45.0085L525.254 45.0086Z" fill="#593A42"/>
<path d="M510.817 53.344C510.817 53.344 460.214 20.2614 418.788 14.4937C377.362 8.7317 368.222 24.8817 371.69 35.219C371.69 35.219 367.994 45.2867 357.69 50.9445C357.69 50.9445 380.654 58.8444 392.616 42.5376C392.616 42.5376 411.151 33.3032 434.865 43.1216C458.573 52.9429 460.304 82.5077 460.304 82.5077L510.817 53.344Z" fill="#FF740C"/>
<path d="M371.496 35.708C387.503 33.8289 392.616 42.5377 392.616 42.5377C380.659 58.8473 357.69 50.9445 357.69 50.9445C366.653 46.0269 370.613 37.7761 371.491 35.7052L371.496 35.708Z" fill="#FFF3DB"/>
<path d="M452.076 40.3307C478.438 45.4469 493.809 53.0844 501.962 58.4566L460.299 82.5107C460.299 82.5107 458.574 52.943 434.86 43.1246C411.151 33.3033 392.611 42.5406 392.611 42.5406C392.611 42.5406 407.577 31.6966 452.071 40.3336L452.076 40.3307Z" fill="#ED4714"/>
<path d="M355.391 53.3623C359.618 53.4387 363.149 52.1249 363.277 50.4244C363.405 48.7295 360.078 47.2943 355.851 47.2178C351.624 47.1413 348.097 48.458 347.969 50.1528C347.841 51.8476 351.168 53.2829 355.396 53.3594L355.391 53.3623Z" fill="#593A42"/>
<path d="M380.86 39.0799C385.202 40.0376 389.317 42.6158 385.965 45.2816C385.408 45.723 384.125 45.3113 384.687 44.867C387.421 42.6888 384.001 40.6852 380.478 39.9055C379.605 39.7134 379.982 38.8849 380.86 39.0799Z" fill="#593A42"/>
<path d="M351.524 48.0664C352.246 47.9461 352.949 47.866 353.705 47.8689C355.615 47.8735 355.452 49.577 353.552 49.5725C353.059 49.5714 352.596 49.6564 352.127 49.7328C350.294 50.0381 349.7 48.3718 351.529 48.0693L351.524 48.0664Z" fill="#936170"/>
<path d="M356.522 47.7152C357.104 47.6757 357.586 47.6883 358.158 47.7523C358.948 47.8442 359.339 48.4056 359.116 48.8142C358.852 49.2919 358.049 49.47 357.265 49.381C357.215 49.3812 357.17 49.3784 357.12 49.3786C356.324 49.4332 355.55 49.2178 355.377 48.7302C355.232 48.3115 355.725 47.7698 356.522 47.7152Z" fill="#936170"/>
<path d="M313.406 95.4843C313.406 95.4843 309.017 92.4418 306.239 89.0574C308.78 89.12 311.337 89.0532 313.852 88.8171L315.473 93.3832L313.401 95.4872L313.406 95.4843Z" fill="#EFDCBD"/>
<path d="M306.243 89.0544C305.409 88.0409 304.724 86.998 304.347 85.9943C304.212 85.6329 304.141 85.2627 304.115 84.8837C303.239 84.4877 302.429 83.9508 302.252 83.3684C302.102 83.0043 302.275 82.5958 303.026 82.596C303.608 82.5967 304.028 82.8853 304.358 83.1339C304.364 83.1195 304.374 83.108 304.369 83.0937C303.553 82.2293 302.259 81.3553 302.2 80.3504C302.21 79.9167 302.606 79.6252 303.37 79.7775C304.299 79.955 304.903 80.6392 305.376 81.0797C305.326 80.5888 304.946 78.0458 305.534 77.4951C306.072 77.0078 306.59 77.3879 306.844 77.7775C307.118 78.1843 307.173 78.6379 307.163 79.0888C309.781 76.6927 313.54 75.0536 316.307 75.7557C322.002 77.1938 312.519 85.0943 312.519 85.0943L313.842 88.8114C311.327 89.0474 308.765 89.1113 306.229 89.0516L306.243 89.0544Z" fill="#FFF3DB"/>
<path d="M295.107 98.5087C295.107 98.5087 292.065 93.3247 294.432 92.9743C296.793 92.6268 298.376 96.6215 298.376 96.6215C298.376 96.6215 300.275 90.3482 303.04 90.9154C305.809 91.4854 303.55 95.6664 303.55 95.6664C303.55 95.6664 315.843 90.9376 319.246 89.989C322.648 89.0404 329.289 88.5911 326.74 92.4314L332.289 97.1784C332.289 97.1784 342.553 89.2205 350.048 92.0047C357.539 94.786 358.827 98.4429 357.64 99.1278C356.454 99.8128 353.803 99.3112 353.803 99.3112C353.803 99.3112 359.743 102.012 358.068 103.664C356.957 104.762 352.868 103.401 352.868 103.401C352.868 103.401 358.067 107.449 355.465 108.842C354.079 109.586 349.852 107.694 349.852 107.694C349.852 107.694 351.002 112.606 347.896 113.212C344.796 113.821 336.539 112.829 336.539 112.829C336.539 112.829 352.574 116.601 356.966 119.819C361.353 123.039 359.424 124.324 355.882 124.337C355.882 124.337 365.567 128.9 369.485 134.931L333.113 155.93C333.113 155.93 298.813 109.394 294.741 104.297C294.741 104.297 284.524 100.155 286.4 98.2791C288.246 96.4315 295.097 98.503 295.097 98.503L295.107 98.5087Z" fill="#FFF3DB"/>
<path d="M358.215 135.302C354.621 132.742 342.977 127.314 352.334 124.948C348.587 123.755 339.696 121.211 346.961 119.094C343.485 118.544 330.409 116.659 330.718 113.924C330.918 111.976 336.792 112.518 341.683 113.295C338.969 113.127 336.539 112.834 336.539 112.834C336.539 112.834 352.575 116.607 356.966 119.825C361.353 123.045 359.424 124.33 355.882 124.343C355.882 124.343 365.567 128.906 369.485 134.936L351.424 145.364C350.049 144.211 349.083 142.931 348.81 141.525C348.148 138.391 352.507 135.076 358.215 135.296L358.215 135.302Z" fill="#EFDCBD"/>
<path d="M315.338 77.0801C316.965 78.8116 311.147 84.631 311.147 84.631L313.378 93.896C313.378 93.896 306.667 85.7789 306.295 84.8067C305.923 83.8345 313.287 74.9136 315.328 77.0801L315.338 77.0801Z" fill="#FEB8AC"/>
<path d="M275.472 101.94C275.917 101.718 276.568 101.775 277.1 101.834C277.085 101.825 277.08 101.811 277.065 101.797C275.457 101.464 273.474 101.307 272.283 100.579C271.799 100.254 271.764 99.8861 272.517 99.7081C273.424 99.4866 274.67 99.7663 275.529 99.9154C274.931 99.5701 271.747 97.8184 271.564 97.1873C271.416 96.6221 272.251 96.7052 272.886 96.8982C273.56 97.0967 274.119 97.4135 274.627 97.7534C273.882 94.9762 274.876 92.3247 277.781 91.7943C283.757 90.7013 285.554 100.183 285.554 100.183L297.242 105.227L298.067 107.581C298.067 107.581 286.563 106.575 280.344 103.967C279.829 103.751 279.354 103.5 278.905 103.229C277.785 103.264 276.558 103.174 275.756 102.809C275.231 102.593 274.897 102.227 275.462 101.94L275.472 101.94Z" fill="#FFF3DB"/>
<path d="M278.543 93.1529C281.753 93.8218 283.965 100.364 283.965 100.364L296.311 105.782C296.311 105.782 281.868 102.916 280.477 102.333C279.085 101.749 274.508 92.309 278.543 93.1472L278.543 93.1529Z" fill="#FEB8AC"/>
<path d="M317.3 100.49C317.47 100.9 317.346 101.274 316.945 101.597C315.806 102.517 313.005 102.57 308.607 101.736C308.393 101.694 308.28 101.565 308.356 101.441C308.422 101.318 308.657 101.251 308.87 101.293C313.884 102.24 315.674 101.828 316.291 101.329C316.557 101.118 316.629 100.883 316.513 100.607C316.184 99.816 314.393 98.9323 313.222 98.5977C313.059 98.5494 312.965 98.4435 313.011 98.3371C313.052 98.2336 313.212 98.1583 313.401 98.1519C314.685 98.1242 316.012 98.2142 317.467 98.4242C317.711 98.4607 317.964 98.4971 318.222 98.5364C319.528 98.7355 321.008 98.9656 322.229 98.7572C322.652 98.6839 322.942 98.5507 323.084 98.3607C323.25 98.1332 323.204 97.8347 322.938 97.537C322.408 96.8956 321.238 96.5553 320.103 96.2234L319.855 96.1497C319.696 96.1043 319.608 96.0012 319.644 95.8948C319.68 95.7942 319.825 95.7161 320.009 95.7068C320.312 95.6914 320.616 95.6759 320.925 95.6633C322.353 95.5978 323.831 95.5321 325.068 95.1887C325.657 95.0142 325.978 94.8178 326.01 94.6109C326.058 94.3034 325.505 93.8804 324.51 93.4562C324.332 93.3821 324.294 93.2329 324.429 93.1262C324.555 93.0195 324.819 92.9984 325.002 93.0753C325.888 93.4483 326.921 94.0275 326.83 94.6452C326.771 95.0274 326.305 95.3479 325.437 95.6095C324.204 95.95 322.835 96.044 321.492 96.1064C322.374 96.3961 323.211 96.7577 323.682 97.3189C324.055 97.7368 324.115 98.1817 323.843 98.5388C323.747 98.6684 323.611 98.7809 323.441 98.8792C323.191 99.0237 322.861 99.134 322.468 99.2015C321.022 99.4423 319.428 99.1982 318.018 98.9851C317.765 98.943 317.517 98.9094 317.283 98.8729C316.439 98.7496 315.644 98.6721 314.878 98.6347C315.943 99.1104 317.049 99.8014 317.33 100.484L317.3 100.49Z" fill="#EFDCBD"/>
<path d="M318.762 107.854C318.643 107.745 318.7 107.604 318.89 107.529C319.079 107.459 319.333 107.49 319.451 107.598C320.032 108.125 320.868 108.567 322.008 108.947C324.213 109.66 325.115 109.579 325.475 109.388C326.171 108.987 324.977 108.043 324.587 107.761C324.035 107.332 323.357 107.027 322.573 106.857C322.399 106.827 322.265 106.801 322.171 106.781C321.972 106.736 321.869 106.607 321.935 106.489C322.006 106.368 322.226 106.304 322.434 106.338C322.588 106.363 322.732 106.389 322.881 106.423C323.755 106.569 325.131 106.682 325.775 106.487C325.945 106.435 326.04 106.368 326.081 106.276C326.132 106.167 326.098 106.078 325.985 105.989C325.393 105.543 323.037 105.362 321.962 105.366C321.734 105.367 321.556 105.264 321.557 105.132C321.558 105 321.739 104.896 321.968 104.895C322.007 104.895 325.588 104.917 326.629 105.697C326.901 105.9 326.983 106.138 326.871 106.385C326.774 106.607 326.523 106.786 326.149 106.899C325.72 107.027 325.167 107.066 324.6 107.057C324.822 107.185 325.035 107.319 325.232 107.474C326.569 108.454 326.859 109.251 326.033 109.728C324.782 110.393 322.388 109.618 321.6 109.36C320.347 108.936 319.417 108.446 318.767 107.856L318.762 107.854Z" fill="#EFDCBD"/>
<path d="M332.693 128.839C332.898 128.789 333.136 128.846 333.224 128.966C333.592 129.49 335.037 130.151 336.426 130.439C337.245 130.605 337.942 130.626 338.371 130.492C338.89 130.318 339.147 130.056 339.17 129.694C339.209 128.878 337.958 127.768 336.858 127.359C336.67 127.291 336.622 127.147 336.737 127.04C336.853 126.928 337.107 126.896 337.29 126.961C339.258 127.64 341.402 128.075 341.782 127.872C341.862 127.826 341.894 127.619 341.501 127.144C340.219 125.652 337.417 124.034 334.828 123.291C334.655 123.243 334.567 123.128 334.622 123.022C334.673 122.913 334.848 122.84 335.042 122.848C336.663 122.905 339.44 122.775 339.598 121.935C339.651 121.677 339.519 121.456 339.188 121.259C338.096 120.594 335.168 120.401 333.909 120.448C333.685 120.458 333.493 120.358 333.484 120.232C333.471 120.103 333.646 119.99 333.87 119.98C335.149 119.933 338.42 120.105 339.779 120.935C340.268 121.235 340.483 121.59 340.399 121.981C340.214 122.984 338.087 123.253 336.509 123.314C338.838 124.195 341.061 125.589 342.22 126.934C342.406 127.158 342.976 127.839 342.345 128.203C342.335 128.209 342.325 128.215 342.315 128.221C341.68 128.559 340.23 128.317 338.965 127.997C339.556 128.518 339.992 129.139 339.966 129.708C339.947 130.096 339.715 130.418 339.279 130.67C339.124 130.759 338.949 130.838 338.749 130.907C338.09 131.111 337.185 131.102 336.133 130.888C334.5 130.552 332.917 129.806 332.456 129.158C332.368 129.038 332.479 128.9 332.683 128.85L332.693 128.839Z" fill="#EFDCBD"/>
<path d="M312.218 122.15C312.235 122.021 312.42 121.92 312.649 121.925C312.867 121.93 313.045 122.038 313.029 122.167C312.928 123.259 313.909 124.496 315.707 124.679C316.354 124.717 316.897 124.609 317.233 124.38C317.594 124.132 317.687 123.764 317.488 123.366C317.439 123.263 317.515 123.156 317.67 123.095C317.834 123.04 318.038 123.054 318.167 123.128C319.561 123.933 321.077 124.501 321.525 124.396C321.755 124.332 321.815 124.258 321.836 124.206C321.999 123.826 321.047 123.103 320.643 122.794L320.534 122.709C320.396 122.606 320.427 122.462 320.617 122.381C320.792 122.303 321.051 122.325 321.184 122.425L321.292 122.51C321.85 122.936 322.886 123.725 322.625 124.321C322.585 124.418 322.494 124.539 322.299 124.652C322.188 124.716 322.038 124.779 321.849 124.832C320.921 125.048 319.401 124.407 318.397 123.902C318.359 124.198 318.172 124.466 317.856 124.683C317.33 125.038 316.542 125.201 315.583 125.145C313.238 124.906 312.1 123.423 312.218 122.15Z" fill="#EFDCBD"/>
<path d="M310.552 113.541C310.466 113.705 310.32 113.846 310.124 113.959C309.929 114.072 309.68 114.159 309.386 114.214C308.937 114.302 308.455 114.272 307.974 114.122C306.849 113.778 305.879 112.826 305.636 112.298C305.578 112.172 305.704 112.042 305.923 112.007C306.142 111.972 306.365 112.043 306.418 112.172C306.598 112.553 307.419 113.42 308.366 113.707C308.649 113.795 308.902 113.814 309.142 113.767C309.481 113.697 309.686 113.584 309.777 113.406C310.072 112.836 309.178 111.794 308.591 111.374C308.453 111.277 308.479 111.136 308.659 111.044C308.834 110.96 309.088 110.979 309.231 111.079C309.823 111.507 310.974 112.721 310.552 113.535L310.552 113.541Z" fill="#EFDCBD"/>
<path d="M305.034 111.39C305.034 111.39 304.999 111.41 304.984 111.419C304.564 111.662 303.966 111.744 303.32 111.637C301.608 111.313 300.866 109.07 300.875 108.272C300.881 108.143 301.062 108.039 301.286 108.035C301.509 108.037 301.687 108.14 301.691 108.269C301.682 109.125 302.492 110.986 303.564 111.188C303.927 111.247 304.23 111.209 304.436 111.073C304.756 110.871 304.835 110.5 304.62 110.168C304.541 110.048 304.647 109.912 304.857 109.866C305.066 109.819 305.299 109.878 305.378 109.999C305.706 110.494 305.565 111.055 305.034 111.39Z" fill="#EFDCBD"/>
<path d="M351.479 129.442C351.703 129.421 351.906 129.51 351.945 129.636C352.198 130.603 354.44 133.383 356.606 133.183C356.9 133.15 357.08 133.063 357.191 132.908C357.419 132.565 357.197 131.974 356.828 131.577C356.724 131.482 356.636 131.402 356.562 131.336C356.444 131.233 356.475 131.09 356.655 131.014C356.835 130.939 357.078 130.958 357.217 131.055C357.315 131.124 357.414 131.215 357.512 131.313C357.621 131.41 357.729 131.519 357.862 131.636C358.728 132.454 360.535 134.162 361.576 134.052C362.084 133.987 362.22 133.828 362.276 133.716C362.713 132.859 360.263 130.803 359.408 130.309C359.25 130.218 359.252 130.069 359.412 129.976C359.572 129.884 359.831 129.883 359.989 129.974C360.651 130.356 363.66 132.666 363.055 133.843C362.989 133.966 362.874 134.108 362.658 134.232C362.443 134.356 362.153 134.455 361.73 134.511C360.545 134.636 359.335 133.822 358.098 132.732C358.082 132.85 358.041 132.965 357.965 133.071C357.758 133.385 357.343 133.585 356.755 133.645C353.882 133.911 351.454 130.792 351.163 129.71C351.129 129.581 351.28 129.46 351.504 129.439L351.479 129.442Z" fill="#FFF3DB"/>
<path d="M326.391 137.483L326.338 137.388C326.264 137.265 326.385 137.133 326.599 137.089C326.809 137.048 327.042 137.113 327.11 137.233L327.164 137.328C327.813 138.477 329.174 140.87 331.36 141.155C331.668 141.188 332.061 141.201 332.211 141.086C332.497 140.864 332.197 140.135 331.514 139.394C331.405 139.28 331.487 139.136 331.681 139.075C331.881 139.011 332.124 139.053 332.232 139.168C332.572 139.531 333.622 140.774 332.865 141.359C332.83 141.385 332.79 141.414 332.75 141.437C332.414 141.631 331.891 141.693 331.181 141.612C328.543 141.269 327.084 138.71 326.391 137.477L326.391 137.483Z" fill="#EFDCBD"/>
<path d="M333.973 138.299C334.167 138.233 334.416 138.266 334.529 138.378C336.345 140.137 338.203 141.285 339.055 141.164C339.473 141.105 339.777 140.645 339.889 139.895C339.911 139.768 340.106 139.667 340.334 139.678C340.558 139.685 340.726 139.8 340.7 139.929C340.587 140.662 340.313 141.151 339.858 141.414C339.678 141.518 339.473 141.585 339.234 141.62C337.41 141.874 334.844 139.606 333.825 138.619C333.712 138.507 333.773 138.363 333.968 138.297L333.973 138.299Z" fill="#EFDCBD"/>
<path d="M336.177 102.348C339.581 103.533 344.929 102.055 348.116 99.0449C351.302 96.0351 351.121 92.6298 347.716 91.4447C344.312 90.2596 338.964 91.7379 335.777 94.7477C332.591 97.7575 332.772 101.163 336.177 102.348Z" fill="#593A42"/>
<path d="M341.156 92.3101C342.829 91.721 345.133 91.6293 346.787 92.2494C347.699 92.5907 346.651 93.3613 345.749 93.0257C344.768 92.6617 343.136 92.7423 342.157 93.0905C341.233 93.4183 340.217 92.6467 341.151 92.313L341.156 92.3101Z" fill="#936170"/>
<path d="M347.99 92.7818C348.566 92.9291 348.986 93.1889 349.186 93.5356C349.528 94.126 347.952 94.4936 347.61 93.8975C347.547 93.7857 347.507 93.7284 347.324 93.6803C346.332 93.4254 347.003 92.5241 347.99 92.7818Z" fill="#936170"/>
<path d="M328.049 97.7712C328.983 98.3105 330.25 98.4466 330.886 98.0796C331.522 97.7126 331.281 96.9783 330.352 96.4417C329.423 95.9052 328.146 95.7634 327.51 96.1305C326.874 96.4975 327.115 97.2318 328.049 97.7712Z" fill="#593A42"/>
<path d="M320.681 102.025C321.615 102.565 322.882 102.701 323.518 102.334C324.153 101.967 323.913 101.232 322.983 100.696C322.054 100.159 320.777 100.018 320.142 100.385C319.506 100.752 319.747 101.486 320.681 102.025Z" fill="#593A42"/>
</g>
</g>
<defs>
<clipPath id="clip0_57_2">
<rect width="720" height="465" fill="white" transform="translate(414)"/>
</clipPath>
<clipPath id="clip1_57_2">
<rect width="410.76" height="208.589" rx="32.2116" transform="matrix(0.866025 -0.5 0.866025 0.5 566.48 288.641)" fill="white"/>
</clipPath>
<clipPath id="clip2_57_2">
<rect width="763" height="217" fill="white" transform="translate(0 40)"/>
</clipPath>
<clipPath id="clip3_57_2">
<rect width="410.76" height="208.589" rx="32.2116" transform="matrix(0.866025 -0.5 0.866025 0.5 152.48 51.6412)" fill="white"/>
</clipPath>
</defs>
</svg>
