<svg width="32" height="33" viewBox="0 0 32 33" fill="none" xmlns="http://www.w3.org/2000/svg">
<path d="M19.9192 30.6751C17.6904 33.1284 13.7685 33.1519 11.5102 30.7255C10.5015 29.6417 11.285 27.9056 12.7868 27.8966L18.6084 27.8617C20.1102 27.8527 20.9147 29.5793 19.9192 30.6751Z" fill="#f1f1f1"/>
<path fill-rule="evenodd" clip-rule="evenodd" d="M25.4021 27.6617C24.2267 28.5749 22.5668 28.2732 21.5718 27.1709L18.4104 23.6688C17.1363 22.2574 14.8998 22.2574 13.6257 23.6688L10.2042 27.4591C9.23422 28.5336 7.6284 28.8523 6.45051 28.0038C2.54036 25.187 0 20.6299 0 15.4874C0 6.93397 7.02809 0 15.6977 0C24.3673 0 31.3954 6.93397 31.3954 15.4874C31.3954 20.4266 29.0519 24.8258 25.4021 27.6617ZM10.9586 17.2224L13.9256 20.6865C14.8679 21.7867 16.5274 21.7867 17.4698 20.6865L20.4368 17.2224C21.3892 16.1104 20.8981 14.3506 19.5196 13.9356C17.0233 13.1843 14.372 13.1843 11.8758 13.9356C10.4972 14.3506 10.0061 16.1104 10.9586 17.2224ZM11.0466 9.88374C11.0466 11.1681 10.0054 12.2093 8.721 12.2093C7.43661 12.2093 6.39542 11.1681 6.39542 9.88374C6.39542 8.59935 7.43661 7.55816 8.721 7.55816C10.0054 7.55816 11.0466 8.59935 11.0466 9.88374ZM22.6744 12.2093C23.9588 12.2093 25 11.1681 25 9.88374C25 8.59935 23.9588 7.55816 22.6744 7.55816C21.39 7.55816 20.3488 8.59935 20.3488 9.88374C20.3488 11.1681 21.39 12.2093 22.6744 12.2093Z" fill="#f1f1f1"/>
</svg>
