<svg width="45" height="47" viewBox="0 0 45 47" fill="none" xmlns="http://www.w3.org/2000/svg">
<path d="M28.2055 43.4359C25.0495 46.9098 19.4962 46.9431 16.2984 43.5072C14.8701 41.9726 15.9795 39.5142 18.1061 39.5015L26.3495 39.4521C28.4761 39.4394 29.6151 41.8843 28.2055 43.4359Z" fill="white"/>
<path fill-rule="evenodd" clip-rule="evenodd" d="M35.9693 39.1689C34.3051 40.462 31.9545 40.0348 30.5456 38.474L26.0691 33.5151C24.265 31.5165 21.0981 31.5165 19.294 33.5151L14.4492 38.882C13.0757 40.4036 10.8018 40.8549 9.13392 39.6534C3.59716 35.6648 0 29.212 0 21.9302C0 9.8185 9.95177 0 22.2279 0C34.504 0 44.4558 9.8185 44.4558 21.9302C44.4558 28.9241 41.1374 35.1533 35.9693 39.1689ZM15.5173 24.3869L19.7186 29.292C21.053 30.8499 23.4028 30.8499 24.7372 29.292L28.9385 24.3869C30.2871 22.8124 29.5917 20.3204 27.6397 19.7328C24.105 18.6689 20.3508 18.6689 16.8161 19.7328C14.8641 20.3204 14.1687 22.8124 15.5173 24.3869ZM15.6419 13.9954C15.6419 15.814 14.1675 17.2884 12.3488 17.2884C10.5302 17.2884 9.05581 15.814 9.05581 13.9954C9.05581 12.1767 10.5302 10.7023 12.3488 10.7023C14.1675 10.7023 15.6419 12.1767 15.6419 13.9954ZM32.107 17.2884C33.9257 17.2884 35.4 15.814 35.4 13.9954C35.4 12.1767 33.9257 10.7023 32.107 10.7023C30.2883 10.7023 28.814 12.1767 28.814 13.9954C28.814 15.814 30.2883 17.2884 32.107 17.2884Z" fill="white"/>
</svg>
