<svg width="20" height="20" viewBox="0 0 20 20" fill="none" xmlns="http://www.w3.org/2000/svg">
<path d="M14.1162 2.50008C15.2337 2.50008 16.3087 2.94174 17.0995 3.73424C17.8912 4.52508 18.3337 5.59174 18.3337 6.70841V13.2917C18.3337 15.6167 16.442 17.5001 14.1162 17.5001H5.88366C3.55783 17.5001 1.66699 15.6167 1.66699 13.2917V6.70841C1.66699 4.38341 3.54949 2.50008 5.88366 2.50008H14.1162ZM15.0587 6.83341C14.8837 6.82424 14.717 6.88341 14.5912 7.00008L10.8337 10.0001C10.3503 10.4009 9.65783 10.4009 9.16699 10.0001L5.41699 7.00008C5.15783 6.80841 4.79949 6.83341 4.58366 7.05841C4.35866 7.28341 4.33366 7.64174 4.52449 7.89174L4.63366 8.00008L8.42533 10.9584C8.89199 11.3251 9.45783 11.5251 10.0503 11.5251C10.6412 11.5251 11.217 11.3251 11.6828 10.9584L15.442 7.95008L15.5087 7.88341C15.7078 7.64174 15.7078 7.29174 15.4995 7.05008C15.3837 6.92591 15.2245 6.85008 15.0587 6.83341Z" fill="#F4D35E"/>
</svg>
